<svg width="95" height="17" viewBox="0 0 95 17" fill="none" xmlns="http://www.w3.org/2000/svg">
<path d="M15.7198 6.59375H4.04223C3.7647 6.59375 3.50521 6.73126 3.34938 6.96091L0 11.8968H11.2339C11.7889 11.8968 12.3079 11.6218 12.6196 11.1625L15.7198 6.59375Z" fill="url(#paint0_linear_9_234)"/>
<path d="M21.8114 1.46862C22.4347 0.550043 23.4727 0 24.5828 0H34.9293L24.3828 15.5419C24.2269 15.7716 23.9674 15.9091 23.6899 15.9091L11.5879 15.909C11.8918 15.9035 12.1558 15.7351 12.2965 15.4875H12.2984L21.8114 1.46862Z" fill="url(#paint1_linear_9_234)"/>
<path d="M4.79892 7.01277C4.65547 6.76242 4.38563 6.59375 4.07642 6.59375H15.7485C16.3035 6.59375 16.8225 6.86878 17.1342 7.32807L22.6729 15.4903C22.815 15.7376 23.0806 15.905 23.3856 15.9083H11.7226C11.1675 15.9083 10.6485 15.6332 10.3369 15.1739L4.79892 7.01277Z" fill="url(#paint2_linear_9_234)"/>
<path d="M23.4644 15.9083V15.9054C23.4444 15.9071 23.4243 15.908 23.4039 15.9083H23.4644Z" fill="url(#paint3_linear_9_234)"/>
<path d="M52.6952 15.8519L58.0307 0.658327H54.3L52.2784 7.05671L50.6527 12.6631H50.5068L48.9229 7.03587L46.8804 0.658327H43.1289L48.4644 15.8519H52.6952Z" fill="white"/>
<path d="M57.2037 12.7882C57.2037 14.789 58.6001 16.0603 60.8301 16.0603C62.5183 16.0603 63.8522 15.3308 64.2482 14.1637H64.4149C64.4983 15.3934 65.2694 16.0186 66.7492 16.0186C67.2494 16.0186 67.7704 15.9561 68.3123 15.831V13.6218C68.2081 13.6427 68.083 13.6635 67.958 13.6635C67.6037 13.6635 67.4161 13.4342 67.4161 12.9549V8.59899C67.4161 6.03547 65.7696 4.47235 62.6642 4.47235C59.8297 4.47235 57.8498 5.93126 57.6622 8.28637H60.7676C60.8301 7.4527 61.4971 6.91082 62.56 6.91082C63.5812 6.91082 64.2482 7.43186 64.2482 8.49478V9.14087H61.6846C58.9544 9.14087 57.2037 10.5164 57.2037 12.7882ZM60.4133 12.3922C60.4133 11.496 61.0177 11.0583 62.2057 11.0583H64.2482V11.4335C64.2482 12.7673 63.3728 13.6635 61.9556 13.6635C61.0177 13.6635 60.4133 13.205 60.4133 12.3922Z" fill="white"/>
<path d="M77.3829 4.68076V10.5789C77.3829 12.3088 76.4451 13.4551 74.9653 13.4551C73.6523 13.4551 73.0062 12.684 73.0062 11.1625V4.68076H69.8174V11.6627C69.8174 14.4138 71.1096 16.0603 73.5481 16.0603C75.2779 16.0603 76.4868 15.31 77.1745 13.8094H77.3621L77.7789 15.8519H80.5509V4.68076H77.3829Z" fill="white"/>
<path d="M86.1771 15.8519V0.345703H83.0092V15.8519H86.1771Z" fill="white"/>
<path d="M87.6229 7.24428H89.4152V12.3922C89.4152 13.4134 89.5403 14.122 90.0196 14.8723C90.499 15.6226 91.4994 16.0395 92.9792 16.0395C93.6669 16.0395 94.3339 15.9769 95.0008 15.8519V13.3717C94.7507 13.4342 94.3964 13.4759 93.9379 13.4759C92.9583 13.4759 92.604 12.9966 92.604 12.017V7.24428H95.0008V4.68076H92.604V0.70001L89.4152 1.92967V4.68076H87.6229V7.24428Z" fill="white"/>
<defs>
<linearGradient id="paint0_linear_9_234" x1="4.17079" y1="6.59375" x2="2.71322" y2="11.4603" gradientUnits="userSpaceOnUse">
<stop stop-color="#C0DA64"/>
<stop offset="1" stop-color="#FFDA64"/>
</linearGradient>
<linearGradient id="paint1_linear_9_234" x1="34.9293" y1="-1.34006e-06" x2="19.8016" y2="1.23498" gradientUnits="userSpaceOnUse">
<stop stop-color="#4A9661"/>
<stop offset="1" stop-color="#204F49"/>
</linearGradient>
<linearGradient id="paint2_linear_9_234" x1="15.4481" y1="15.9082" x2="15.4481" y2="6.33581" gradientUnits="userSpaceOnUse">
<stop stop-color="#C0DA64" stop-opacity="0.46"/>
<stop offset="1" stop-color="#4A9661"/>
</linearGradient>
<linearGradient id="paint3_linear_9_234" x1="15.4481" y1="15.9082" x2="15.4481" y2="6.33581" gradientUnits="userSpaceOnUse">
<stop stop-color="#C0DA64" stop-opacity="0.46"/>
<stop offset="1" stop-color="#4A9661"/>
</linearGradient>
</defs>
</svg>
